<?xml version='1.0' encoding='iso-8859-1'?>
<svg version="1.1" xmlns="http://www.w3.org/2000/svg" viewBox="0 0 137.145 137.145" xmlns:xlink="http://www.w3.org/1999/xlink" enable-background="new 0 0 137.145 137.145">
  <g>
    <g>
      <path d="m30.858,48.001c-5.681,0-10.286,4.605-10.286,10.285 0,5.681 4.605,10.286 10.286,10.286 5.681,0 10.286-4.605 10.286-10.286-7.10543e-15-5.679-4.605-10.285-10.286-10.285zm48,0c5.681,0 10.286-4.605 10.286-10.285 0-5.681-4.605-10.287-10.286-10.287-5.681,0-10.286,4.605-10.286,10.287 0,5.68 4.606,10.285 10.286,10.285zm-27.428,0c5.681,0 10.286-4.605 10.286-10.285 0-5.681-4.605-10.287-10.286-10.287-5.681,0-10.286,4.605-10.286,10.287 0,5.68 4.605,10.285 10.286,10.285zm17.142,6.858c-15.148,0-27.429,10.745-27.429,24 0,13.255 12.281,24 27.429,24 15.149,0 27.429-10.746 27.429-24 0-13.255-12.28-24-27.429-24zm41.144-54.859h-82.287c-15.148,0-27.429,12.281-27.429,27.429v82.287c0,15.148 12.28,27.429 27.429,27.429h82.286c15.148,0 27.429-12.281 27.429-27.429v-82.287c0.001-15.148-12.28-27.429-27.428-27.429zm13.714,102.859c0,11.361-9.21,20.572-20.572,20.572h-68.572c-11.361,0-20.571-9.211-20.571-20.572v-68.572c0-11.361 9.21-20.572 20.571-20.572h68.572c11.362,0 20.572,9.211 20.572,20.572v68.572zm-17.143-61.715c-5.681,0-10.286,4.605-10.286,10.286 0,5.681 4.605,10.286 10.286,10.286 5.68,0 10.286-4.605 10.286-10.286-1.42109e-14-5.681-4.605-10.286-10.286-10.286z"/>
    </g>
  </g>
</svg>
